# xmcd
# 
# Track frame offsets:
#     150
#     19946
#     45715
#     61311
#     81107
#     83772
#     113768
#     141708
#     171577
#     188854
#     215962
#     242301
#     265399
#     281238
#     300932
# 
# Disc length: 4344
# 
# Revision: 2
# Processed by: cddbd v1.5.2PL0 Copyright (c) Steve Scherf et al.
# Submitted via: fre:ac v1.0.27
# 
DISCID=de10f60f
DTITLE=Richard Galliano Tangaria Quartet - Live in Marciac 2006
DYEAR=2006
DGENRE=Jazz
TTITLE0=Tango pour Claude
TTITLE1=Laurita
TTITLE2=Chat Pitre
TTITLE3=Tangaria
TTITLE4=Tangaria Quartet Introduction
TTITLE5=Fou Rire
TTITLE6=Sertao
TTITLE7=Disparada
TTITLE8=Chorinho Pra Ele
TTITLE9=Traditionnel Venezuelien
TTITLE10=Spleen
TTITLE11=Libertango
TTITLE12=Escuado
TTITLE13=Sanfona
TTITLE14=New York Tango
EXTD=YEAR: 2006
EXTT0=
EXTT1=
EXTT2=
EXTT3=
EXTT4=
EXTT5=
EXTT6=
EXTT7=
EXTT8=
EXTT9=
EXTT10=
EXTT11=
EXTT12=
EXTT13=
EXTT14=
PLAYORDER=
